<?xml version="1.0" standalone="no"?>
<!DOCTYPE svg PUBLIC "-//W3C//DTD SVG 20010904//EN"
 "http://www.w3.org/TR/2001/REC-SVG-20010904/DTD/svg10.dtd">
<svg version="1.0" xmlns="http://www.w3.org/2000/svg"
 width="331.000000pt" height="300.000000pt" viewBox="0 0 331.000000 300.000000"
 preserveAspectRatio="xMidYMid meet">

<g transform="translate(0.000000,300.000000) scale(0.100000,-0.100000)"
fill="#000000" stroke="none">
<path d="M1820 2976 c-102 -13 -195 -29 -207 -37 -36 -22 -61 -84 -98 -239
-23 -99 -39 -148 -51 -155 -112 -66 -166 -144 -190 -276 l-7 -34 39 37 c53 50
76 57 249 78 83 10 160 21 173 25 18 6 22 4 22 -13 0 -34 -25 -43 -162 -58
-164 -19 -214 -34 -271 -84 -60 -53 -88 -122 -132 -320 -54 -242 -43 -328 56
-429 l39 -41 -74 0 c-54 0 -75 -4 -79 -14 -3 -8 -3 -17 0 -20 4 -3 262 -6 575
-6 537 0 569 1 566 18 -3 15 -22 17 -206 20 l-203 2 30 38 c16 20 34 55 40 77
42 159 291 1294 291 1324 0 39 -33 101 -58 109 -11 3 -12 0 -3 -16 17 -31 14
-82 -4 -82 -10 0 -15 10 -15 31 0 20 -10 40 -29 60 -35 35 -37 35 -291 5z
m258 -32 c12 -8 22 -24 22 -34 0 -32 -277 -1251 -287 -1260 -4 -5 -100 -10
-213 -11 -232 -3 -210 -12 -189 83 13 58 73 130 126 151 21 8 72 18 113 22 89
9 124 25 150 68 26 41 25 78 -1 111 -26 33 -70 35 -101 4 -18 -18 -42 -25
-118 -34 -52 -6 -108 -15 -124 -19 l-30 -8 22 30 c29 42 76 61 161 69 93 9
131 33 150 94 14 47 18 56 51 105 26 39 25 76 -1 109 -27 34 -71 35 -111 1
-23 -19 -40 -25 -76 -24 l-47 0 47 15 c27 8 57 27 72 45 75 89 -26 216 -102
129 -24 -27 -62 -41 -62 -22 1 14 47 203 51 207 3 2 72 11 154 20 196 20 192
19 200 55 11 51 68 107 110 109 6 1 21 -6 33 -15z m-188 -48 c0 -17 -79 -31
-94 -16 -16 16 11 30 57 30 25 0 37 -5 37 -14z m-240 -370 c0 -23 -36 -46 -90
-56 -29 -5 -54 -10 -57 -10 -2 0 -22 -17 -46 -38 -68 -61 -117 -94 -117 -80 0
16 35 75 64 107 29 33 114 71 157 71 19 0 44 6 54 14 21 15 35 12 35 -8z m37
-292 c7 -23 -21 -36 -108 -50 -51 -8 -109 -22 -127 -31 -37 -18 -157 -150
-179 -197 l-14 -31 6 40 c9 61 61 161 103 195 56 46 93 59 199 74 107 14 115
14 120 0z m53 -224 c0 -31 -38 -47 -125 -55 -75 -7 -159 -33 -228 -71 -28 -16
-29 -16 -18 3 19 36 89 92 128 102 21 5 74 12 119 16 44 4 87 11 95 16 22 13
29 11 29 -11z m-156 -453 c15 -23 -4 -52 -35 -52 -30 0 -37 30 -13 56 20 22
33 21 48 -4z"/>
<path d="M1037 1384 c-14 -15 -6 -34 14 -34 14 0 19 5 17 17 -3 18 -20 27 -31
17z"/>
<path d="M10 460 l0 -461 298 3 297 3 68 32 c193 92 298 330 242 548 -34 131
-123 245 -232 301 l-58 29 -307 3 -308 3 0 -461z m561 420 c148 -28 262 -142
305 -305 27 -99 12 -231 -37 -327 -32 -62 -112 -141 -176 -174 l-58 -29 -277
-3 -278 -3 0 425 0 426 234 0 c128 0 257 -5 287 -10z"/>
<path d="M90 459 l0 -380 253 3 c251 3 252 3 302 30 143 76 228 256 197 420
-17 93 -64 179 -124 232 -82 71 -105 76 -385 76 l-243 0 0 -381z m522 329 c53
-23 126 -94 153 -149 75 -148 48 -329 -67 -440 -73 -72 -104 -79 -355 -79
l-213 0 0 346 0 346 223 -4 c177 -3 229 -7 259 -20z"/>
<path d="M170 460 l0 -300 186 0 c208 0 245 7 302 56 130 111 141 355 20 476
-65 64 -83 68 -307 68 l-201 0 0 -300z m426 247 c101 -53 153 -206 115 -340
-16 -56 -81 -134 -128 -153 -23 -10 -82 -14 -203 -14 l-170 0 0 266 0 266 178
-4 c140 -3 183 -7 208 -21z"/>
<path d="M250 460 l0 -220 148 0 c173 0 200 9 247 85 58 94 45 234 -30 312
l-42 43 -161 0 -162 0 0 -220z m336 155 c77 -77 71 -249 -11 -313 -25 -20 -39
-22 -156 -22 l-129 0 0 180 0 180 135 0 c132 0 137 -1 161 -25z"/>
<path d="M1020 460 l0 -460 278 0 c300 0 341 5 428 56 64 38 131 117 172 201
32 68 37 88 40 172 3 54 -1 118 -8 150 -28 127 -128 258 -237 309 l-58 27
-307 3 -308 3 0 -461z m651 393 c83 -41 150 -111 192 -201 27 -57 32 -81 35
-165 4 -81 1 -109 -18 -168 -42 -129 -139 -230 -256 -265 -35 -10 -112 -14
-306 -14 l-258 0 0 426 0 426 273 -4 272 -3 66 -32z"/>
<path d="M1100 459 l0 -380 253 3 c234 3 255 5 299 25 66 30 134 102 171 181
30 62 32 75 32 172 0 86 -5 116 -23 162 -30 75 -111 164 -177 195 -48 22 -59
23 -302 23 l-253 0 0 -381z m542 318 c64 -32 115 -87 150 -163 19 -41 23 -66
23 -149 0 -89 -3 -107 -28 -160 -32 -69 -84 -127 -142 -158 -37 -20 -56 -22
-272 -25 l-233 -3 0 346 0 347 223 -4 c220 -3 223 -3 279 -31z"/>
<path d="M1180 460 l0 -300 188 0 c103 0 204 5 226 11 52 14 129 88 155 150
68 156 10 354 -122 418 -40 19 -61 21 -245 21 l-202 0 0 -300z m426 248 c52
-28 102 -92 120 -155 39 -133 -17 -287 -120 -334 -35 -16 -67 -19 -213 -19
l-173 0 0 258 c0 142 3 262 8 266 4 4 84 6 177 4 134 -3 176 -7 201 -20z"/>
<path d="M1260 460 l0 -220 145 0 c103 0 156 4 180 14 71 30 125 153 110 249
-10 59 -53 134 -90 157 -29 18 -50 20 -189 20 l-156 0 0 -220z m349 143 c56
-67 63 -160 19 -251 -30 -63 -55 -72 -203 -72 l-125 0 0 180 0 180 139 0 140
0 30 -37z"/>
<path d="M2032 463 c3 -427 4 -458 21 -461 16 -3 17 24 17 457 0 455 0 461
-20 461 -20 0 -20 -5 -18 -457z"/>
<path d="M2120 460 c0 -402 2 -460 15 -460 13 0 15 58 15 460 0 402 -2 460
-15 460 -13 0 -15 -58 -15 -460z"/>
<path d="M2200 460 c0 -402 2 -460 15 -460 13 0 15 58 15 460 0 402 -2 460
-15 460 -13 0 -15 -58 -15 -460z"/>
<path d="M2280 460 c0 -402 2 -460 15 -460 13 0 15 58 15 460 0 402 -2 460
-15 460 -13 0 -15 -58 -15 -460z"/>
<path d="M2420 460 c0 -453 0 -460 20 -460 20 0 20 7 20 446 l0 446 288 -4
c274 -3 289 -5 333 -26 119 -59 182 -153 183 -275 0 -124 -59 -223 -166 -276
-60 -30 -64 -31 -210 -31 -143 0 -148 -1 -148 -21 0 -20 3 -21 163 -17 147 3
166 6 212 28 120 59 186 169 187 311 0 62 -5 87 -27 137 -33 73 -102 142 -178
177 -52 25 -54 25 -364 25 l-313 0 0 -460z"/>
<path d="M2500 420 c0 -413 0 -420 20 -420 19 0 20 8 22 402 l3 403 205 3
c257 3 296 -4 362 -66 95 -89 99 -219 9 -315 -53 -58 -86 -67 -241 -67 -133 0
-140 -1 -140 -20 0 -19 7 -20 133 -20 152 0 190 8 249 53 154 118 125 366 -52
446 -42 19 -65 21 -307 21 l-263 0 0 -420z"/>
<path d="M2580 380 c0 -373 0 -380 20 -380 19 0 20 8 22 363 l3 362 145 3
c197 4 243 -2 285 -40 64 -55 66 -152 6 -212 l-31 -31 -145 -3 c-135 -3 -145
-5 -145 -23 0 -18 8 -19 135 -19 153 0 194 12 237 72 19 28 23 45 23 108 0 85
-17 117 -83 157 -35 22 -47 23 -254 23 l-218 0 0 -380z"/>
<path d="M2660 340 c0 -333 0 -340 20 -340 20 0 20 7 20 320 l0 320 149 0
c164 0 175 -4 173 -61 -1 -55 -12 -59 -153 -59 -122 0 -129 -1 -129 -20 0 -19
7 -20 135 -20 131 0 137 1 160 25 36 35 35 112 -1 149 l-27 26 -173 0 -174 0
0 -340z"/>
</g>
</svg>
