<?xml version="1.0" standalone="no"?>
<!DOCTYPE svg PUBLIC "-//W3C//DTD SVG 20010904//EN"
 "http://www.w3.org/TR/2001/REC-SVG-20010904/DTD/svg10.dtd">
<svg version="1.0" xmlns="http://www.w3.org/2000/svg"
 width="331.000000pt" height="300.000000pt" viewBox="0 0 331.000000 300.000000"
 preserveAspectRatio="xMidYMid meet">

<g transform="translate(0.000000,300.000000) scale(0.100000,-0.100000)"
fill="#000000" stroke="none">
<path d="M387 2913 c-4 -3 -7 -289 -7 -635 l0 -628 385 0 c243 0 403 4 437 11
84 18 185 76 258 149 160 160 228 420 169 646 -61 234 -254 423 -464 454 -77
11 -768 14 -778 3z m824 -69 c198 -58 346 -248 380 -487 32 -217 -78 -464
-255 -579 -115 -74 -141 -78 -547 -78 l-359 0 0 580 0 580 363 0 c304 0 372
-3 418 -16z"/>
<path d="M497 2803 c-4 -3 -7 -240 -7 -525 l0 -519 353 3 352 3 59 30 c118 61
209 172 258 314 18 53 23 87 22 171 0 159 -45 277 -146 386 -69 73 -150 119
-238 133 -71 12 -642 15 -653 4z m736 -86 c281 -138 334 -581 97 -801 -110
-101 -106 -101 -470 -101 l-315 0 -3 455 c-1 250 0 461 3 468 4 10 69 12 317
10 l313 -3 58 -28z"/>
<path d="M608 2694 c-5 -4 -8 -191 -8 -416 l0 -409 283 3 c277 3 283 3 330 28
26 13 68 45 92 71 79 85 115 180 115 307 0 181 -81 326 -219 390 -55 26 -60
27 -321 30 -146 2 -268 0 -272 -4z m577 -78 c233 -108 244 -530 17 -664 l-47
-27 -250 0 -250 0 -3 345 c-1 190 0 351 3 357 3 10 60 13 242 13 228 0 240 -1
288 -24z"/>
<path d="M710 2280 l0 -300 208 0 c199 0 211 1 253 23 174 91 184 426 17 547
l-41 30 -219 0 -218 0 0 -300z m423 241 c68 -26 117 -123 117 -231 0 -120 -29
-190 -99 -237 -32 -22 -44 -23 -206 -23 -148 0 -174 2 -179 16 -8 21 -8 469 1
477 10 11 339 8 366 -2z"/>
<path d="M1780 2286 l0 -636 388 0 c227 0 406 5 432 11 76 17 185 77 244 134
259 251 273 673 31 943 -56 62 -133 114 -222 149 l-68 27 -402 4 -403 4 0
-636z m821 560 c173 -53 304 -189 364 -379 48 -151 29 -347 -48 -491 -65 -123
-209 -236 -337 -265 -26 -6 -191 -11 -397 -11 l-353 0 0 580 0 580 363 0 c281
0 372 -3 408 -14z"/>
<path d="M1890 2285 l0 -526 348 3 347 3 68 32 c91 43 171 125 219 224 50 100
61 160 56 293 -4 97 -9 121 -38 190 -55 131 -153 231 -270 278 -52 21 -74 22
-392 26 l-338 4 0 -527z m740 432 c328 -167 333 -692 8 -868 l-63 -34 -317 -3
-318 -3 0 471 0 471 318 -3 317 -3 55 -28z"/>
<path d="M2013 2694 c-10 -4 -13 -97 -13 -415 l0 -410 283 3 c277 3 283 3 330
28 90 45 170 156 196 271 47 200 -47 422 -209 498 -54 25 -60 25 -315 28 -143
1 -266 0 -272 -3z m544 -65 c119 -44 215 -204 212 -356 -1 -118 -70 -252 -160
-313 l-52 -35 -253 -3 -254 -3 0 360 0 361 239 0 c144 0 251 -4 268 -11z"/>
<path d="M2110 2280 l0 -300 205 0 c150 0 214 4 238 14 45 19 93 71 124 136
24 48 27 67 27 150 -1 105 -18 160 -74 230 -52 66 -71 70 -309 70 l-211 0 0
-300z m430 235 c65 -33 110 -130 110 -234 0 -73 -15 -126 -52 -179 -45 -65
-70 -72 -268 -72 l-170 0 0 250 0 250 175 0 c137 0 182 -3 205 -15z"/>
<path d="M737 1354 c-4 -4 -7 -290 -7 -636 l0 -628 25 0 25 0 -2 632 c-3 562
-5 633 -18 636 -9 1 -19 0 -23 -4z"/>
<path d="M847 1354 c-4 -4 -7 -290 -7 -636 l0 -628 25 0 25 0 -2 632 c-3 562
-5 633 -18 636 -9 1 -19 0 -23 -4z"/>
<path d="M957 1354 c-4 -4 -7 -290 -7 -636 l0 -628 25 0 25 0 -2 632 c-3 562
-5 633 -18 636 -9 1 -19 0 -23 -4z"/>
<path d="M1067 1354 c-4 -4 -7 -290 -7 -636 l0 -628 25 0 25 0 -2 632 c-3 562
-5 633 -18 636 -9 1 -19 0 -23 -4z"/>
<path d="M1780 725 l0 -635 25 0 25 0 2 608 3 607 350 3 c400 3 455 -2 542
-54 325 -192 262 -674 -101 -770 -34 -9 -111 -14 -233 -14 l-183 0 0 -25 0
-25 199 0 c171 0 208 3 264 20 201 62 320 231 319 455 0 80 -4 101 -32 169
-55 131 -169 236 -298 276 -59 19 -94 20 -473 20 l-409 0 0 -635z"/>
<path d="M1890 670 l0 -580 25 0 25 0 2 553 3 552 330 0 330 0 51 -27 c191
-101 231 -345 82 -498 -73 -76 -105 -85 -330 -88 l-198 -4 0 -24 0 -24 190 0
c164 0 198 3 246 20 142 49 235 187 235 346 0 118 -58 227 -156 292 -91 59
-113 62 -492 62 l-343 0 0 -580z"/>
<path d="M2000 615 l0 -525 25 0 25 0 2 498 3 497 260 0 c257 0 261 0 302 -24
144 -83 132 -292 -19 -355 -29 -12 -77 -16 -213 -16 l-175 0 0 -25 0 -25 188
0 c176 0 190 2 237 24 28 13 60 34 72 47 63 69 82 198 42 284 -26 56 -95 117
-147 133 -26 8 -134 12 -321 12 l-281 0 0 -525z"/>
<path d="M2117 1023 c-4 -3 -7 -215 -7 -470 l0 -463 25 0 25 0 0 439 c0 391 2
440 16 445 26 10 336 7 375 -4 44 -12 65 -52 55 -105 -12 -60 -29 -65 -223
-65 l-173 0 0 -25 0 -25 180 0 c200 0 227 6 255 60 22 42 19 118 -5 158 -34
56 -64 62 -303 62 -118 0 -217 -3 -220 -7z"/>
</g>
</svg>
