<?xml version="1.0" standalone="no"?>
<!DOCTYPE svg PUBLIC "-//W3C//DTD SVG 20010904//EN"
 "http://www.w3.org/TR/2001/REC-SVG-20010904/DTD/svg10.dtd">
<svg version="1.0" xmlns="http://www.w3.org/2000/svg"
 width="1324.000000pt" height="1200.000000pt" viewBox="0 0 1324.000000 1200.000000"
 preserveAspectRatio="xMidYMid meet">

<g transform="translate(0.000000,1200.000000) scale(0.100000,-0.100000)"
fill="#000000" stroke="none">
<path d="M1515 11658 c-3 -7 -4 -1151 -3 -2541 l3 -2529 1460 -1 c1544 -2
1567 -2 1790 45 192 39 452 144 642 259 218 132 474 358 625 553 186 240 338
527 442 836 85 256 147 692 132 935 -33 517 -135 885 -351 1265 -379 668
-1015 1111 -1694 1180 -161 16 -3040 14 -3046 -2z m3052 -223 c508 -66 1025
-388 1343 -835 258 -363 409 -770 451 -1214 17 -188 7 -569 -20 -711 -100
-524 -342 -985 -694 -1322 -279 -267 -633 -454 -977 -518 -170 -31 -345 -35
-1636 -35 l-1301 0 -6 63 c-9 83 -9 4479 -1 4539 l7 48 1358 0 c1162 0 1375
-2 1476 -15z"/>
<path d="M1946 10718 c-6 -492 -5 -3246 2 -3549 l3 -146 1252 1 c1135 2 1263
4 1365 19 471 73 897 355 1189 787 56 82 139 224 165 280 100 221 146 365 193
610 71 367 29 853 -104 1206 -76 200 -106 264 -199 413 -246 399 -584 679
-979 811 -233 78 -135 73 -1584 77 l-1296 4 -7 -513z m2626 269 c299 -58 549
-196 783 -431 153 -154 239 -271 334 -456 104 -205 171 -407 207 -625 26 -155
26 -532 1 -695 -20 -121 -70 -307 -115 -425 -120 -313 -325 -598 -572 -794
-188 -150 -354 -232 -575 -284 -88 -21 -112 -21 -1270 -27 -649 -3 -1184 -2
-1188 1 -10 8 -15 3729 -5 3744 4 7 401 10 1160 9 1040 0 1161 -2 1240 -17z"/>
<path d="M2528 10783 l-138 -4 -2 -682 c-3 -712 -3 -839 0 -1949 l2 -678 1003
0 c669 0 1032 4 1092 11 264 32 510 161 725 379 240 243 408 599 466 985 22
149 22 414 -1 565 -70 470 -304 893 -623 1128 -163 120 -357 207 -522 233 -73
11 -1664 21 -2002 12z m1972 -231 c207 -41 411 -159 569 -328 188 -201 334
-521 382 -839 17 -112 18 -410 1 -526 -15 -104 -67 -294 -112 -404 -122 -304
-405 -605 -662 -705 -149 -58 -159 -58 -1153 -61 l-910 -2 -3 1429 c-1 786 0
1434 2 1439 6 16 1804 13 1886 -3z"/>
<path d="M2838 10328 c-7 -24 -10 -2263 -3 -2340 l7 -78 763 0 c492 0 791 4
841 11 346 48 650 393 760 864 27 112 28 134 28 335 0 226 -13 326 -65 485
-31 96 -144 314 -201 390 -142 188 -314 306 -488 334 -100 17 -1637 15 -1642
-1z m1687 -238 c186 -79 352 -297 429 -566 49 -172 59 -257 53 -452 -4 -141
-10 -185 -35 -282 -38 -151 -80 -248 -152 -357 -107 -164 -243 -266 -384 -292
-39 -7 -288 -11 -717 -11 l-657 0 -6 23 c-3 12 -6 460 -6 995 l0 973 708 -3
707 -3 60 -25z"/>
<path d="M7102 9129 l3 -2541 1460 -1 c1128 -1 1486 1 1575 11 252 28 448 86
685 202 438 215 774 538 1024 986 295 528 414 1198 315 1774 -99 582 -348
1083 -724 1460 -221 222 -495 404 -778 516 -118 47 -285 93 -412 115 -58 10
-420 14 -1613 16 l-1537 4 2 -2542z m3055 2306 c328 -43 645 -182 943 -413
512 -398 848 -1103 867 -1823 9 -314 -29 -579 -123 -864 -130 -395 -321 -706
-600 -975 -302 -291 -659 -474 -1044 -537 -94 -15 -247 -17 -1492 -20 l-1388
-4 0 2326 0 2325 1359 0 c1169 0 1377 -2 1478 -15z"/>
<path d="M7538 10288 c-2 -519 -2 -1298 0 -1733 1 -434 2 -958 2 -1163 l0
-374 1263 5 c1116 3 1274 6 1362 21 536 89 994 427 1287 953 93 166 149 301
197 478 127 466 123 872 -14 1352 -33 113 -135 358 -183 435 -10 15 -35 56
-56 92 -22 36 -74 112 -117 168 -228 300 -523 516 -858 628 -231 78 -134 73
-1583 77 l-1298 4 -2 -943z m2624 699 c439 -85 822 -371 1073 -801 108 -185
200 -432 235 -633 58 -329 44 -715 -36 -1013 -111 -410 -354 -771 -689 -1023
-102 -76 -290 -173 -410 -210 -182 -56 -182 -56 -1420 -57 l-1140 -1 -5 298
c-7 370 -12 3448 -6 3454 2 2 523 4 1158 3 1035 0 1162 -2 1240 -17z"/>
<path d="M8003 10780 l-23 -9 0 -1499 c0 -824 3 -1567 7 -1650 l6 -152 996 0
c1052 0 1107 2 1261 47 90 26 247 100 334 158 276 183 510 517 619 885 67 226
95 469 78 691 -33 426 -162 764 -409 1070 -182 226 -484 407 -752 450 -92 15
-2082 23 -2117 9z m1997 -220 c135 -12 204 -30 317 -85 131 -62 204 -115 314
-224 152 -153 259 -331 334 -555 67 -202 91 -390 82 -655 -6 -186 -22 -296
-63 -439 -109 -375 -409 -734 -713 -851 -153 -59 -160 -59 -1151 -62 l-905 -2
-5 1434 c-3 789 -4 1436 -3 1439 2 9 1688 9 1793 0z"/>
<path d="M8430 9125 l0 -1215 758 0 c472 0 789 4 842 11 301 37 582 307 713
684 68 196 82 286 82 515 0 177 -3 220 -23 314 -63 293 -173 507 -352 686
-122 121 -242 187 -380 209 -42 7 -349 11 -852 11 l-788 0 0 -1215z m1667 974
c144 -55 278 -189 367 -364 54 -107 105 -256 121 -358 19 -118 19 -363 0 -491
-57 -376 -298 -697 -559 -745 -39 -7 -288 -11 -718 -11 l-658 0 0 993 c0 547
2 996 4 998 2 2 319 2 703 -1 608 -4 703 -7 740 -21z"/>
<path d="M7110 3193 c-1 -1242 -3 -2385 -6 -2541 l-6 -282 116 0 116 0 0 2430
0 2430 1443 0 c922 0 1474 -4 1532 -10 139 -16 331 -70 451 -127 456 -214 775
-565 923 -1013 87 -267 103 -528 50 -835 -31 -173 -140 -447 -242 -607 -212
-329 -552 -580 -942 -693 -174 -50 -257 -55 -1012 -62 l-703 -6 0 -104 0 -103
703 0 c773 0 845 4 1062 60 624 161 1070 566 1269 1153 143 425 153 880 25
1261 -164 494 -515 891 -992 1124 -202 99 -381 151 -596 172 -64 6 -681 10
-1647 10 l-1544 0 0 -2257z"/>
<path d="M2900 2895 l0 -2546 110 3 110 3 0 2534 c0 1393 -3 2537 -6 2542 -3
5 -52 9 -110 9 l-104 0 0 -2545z"/>
<path d="M3345 5428 c-2 -7 -4 -1151 -2 -2543 l2 -2530 110 -3 110 -3 0 2538
c0 1396 -3 2540 -7 2543 -4 3 -52 7 -107 8 -77 3 -102 0 -106 -10z"/>
<path d="M3787 4939 c-9 -652 -9 -3641 0 -4177 l6 -413 109 3 108 3 0 2534 c0
1394 -1 2536 -3 2537 -1 2 -50 6 -108 10 l-106 7 -6 -504z"/>
<path d="M4226 3838 c-4 -882 -4 -2026 1 -2543 l8 -940 108 0 108 0 -1 2534
c0 1393 -3 2537 -6 2542 -3 5 -52 9 -108 9 l-104 0 -6 -1602z"/>
<path d="M7547 4403 c-9 -784 -9 -2985 0 -3576 l6 -457 111 0 111 0 0 2206 0
2205 1185 6 c827 3 1214 2 1281 -6 258 -29 502 -150 705 -349 205 -201 325
-433 360 -699 40 -297 -35 -619 -204 -878 -60 -92 -215 -251 -305 -313 -89
-61 -214 -124 -309 -156 -154 -52 -228 -56 -972 -56 l-686 0 0 -111 0 -110
728 4 c793 5 776 3 979 66 214 66 403 181 563 341 216 217 344 460 411 780 29
139 32 380 6 519 -77 406 -326 763 -684 982 -189 115 -370 177 -577 198 -73 7
-539 11 -1406 11 l-1297 0 -6 -607z"/>
<path d="M8013 4562 l-23 -3 0 -2095 0 -2094 115 0 115 0 0 1990 0 1991 998
-3 c1128 -4 1034 3 1221 -89 92 -45 116 -63 201 -148 81 -82 104 -111 148
-199 63 -121 82 -199 82 -338 0 -294 -101 -514 -305 -659 -82 -58 -153 -92
-243 -118 -75 -21 -97 -21 -784 -25 l-708 -3 0 -110 0 -110 713 4 c771 4 743
2 916 61 119 41 234 113 342 214 50 47 149 183 187 257 51 102 92 267 107 435
7 81 -13 245 -41 342 -75 252 -331 529 -591 638 -161 67 -102 64 -1323 65
-608 1 -1115 0 -1127 -3z"/>
<path d="M8435 3498 c-4 -343 -6 -1185 -4 -1873 l4 -1250 113 -3 112 -3 2
1768 3 1768 550 1 c303 0 651 -2 775 -5 254 -7 270 -11 347 -87 76 -77 88
-111 88 -254 -1 -108 -4 -132 -23 -175 -30 -65 -82 -118 -146 -147 l-51 -23
-688 -3 -688 -3 3 -107 3 -107 560 -2 c787 -2 885 5 1020 75 88 45 165 141
196 245 36 117 48 278 29 378 -37 196 -219 383 -409 419 -34 6 -373 10 -921
10 l-868 0 -7 -622z"/>
</g>
</svg>
